<?xml version="1.0" encoding="utf-8"?>
<svg width="18" height="18" viewBox="0 0 18 18" style="enable-background:new 0 0 412.232 412.231" xmlns="http://www.w3.org/2000/svg">
  <path d="M6.05 6.025a1.431 1.431 0 1 0-2.86 0 1.431 1.431 0 0 0 2.86 0zm-1.431.727a.723.723 0 0 1-.248-.046.908.908 0 0 0 .839-.903.912.912 0 0 0-.036-.241.719.719 0 0 1 .172.464c0 .4-.326.726-.727.726zm-.113-.95a.206.206 0 1 1-.206-.206.208.208 0 0 1 .206.206zm7.159.223a1.431 1.431 0 1 0 1.43-1.431 1.434 1.434 0 0 0-1.43 1.431zm.906-.223a.205.205 0 1 1 .411-.001.205.205 0 0 1-.411.001zm.524.95a.723.723 0 0 1-.248-.046.908.908 0 0 0 .839-.903.912.912 0 0 0-.036-.241.719.719 0 0 1 .172.464c0 .4-.326.726-.727.726z" style="fill: rgb(255, 255, 255);"/>
  <path d="M 17.648 7.066 L 17.507 7.066 C 17.372 5.504 16.367 4.151 14.911 3.57 C 13.569 1.628 11.36 0.468 8.999 0.467 C 6.639 0.468 4.429 1.627 3.087 3.569 C 1.631 4.15 0.626 5.503 0.491 7.065 L 0.352 7.065 C 0.081 7.085 -0.066 7.392 0.087 7.616 C 0.147 7.705 0.245 7.761 0.352 7.769 L 0.492 7.769 C 0.598 9.017 1.263 10.15 2.3 10.851 L 3.297 17.233 C 3.324 17.404 3.472 17.531 3.645 17.531 L 6.285 17.531 C 6.479 17.53 6.636 17.373 6.637 17.179 C 6.639 15.875 7.695 14.819 8.999 14.817 C 10.303 14.819 11.359 15.875 11.361 17.179 C 11.361 17.373 11.519 17.531 11.713 17.531 L 14.353 17.531 C 14.526 17.531 14.673 17.404 14.7 17.233 L 15.698 10.851 C 16.735 10.15 17.4 9.017 17.506 7.769 L 17.647 7.769 C 17.841 7.768 17.998 7.611 17.999 7.417 C 18 7.223 17.842 7.065 17.648 7.066 Z M 4.619 10.858 C 4.012 10.858 3.442 10.698 2.946 10.421 C -0.113 8.84 1.122 4.333 3.546 4.151 C 3.892 4.037 4.254 3.978 4.619 3.978 C 6.518 3.98 8.057 5.519 8.059 7.418 C 8.057 9.317 6.518 10.856 4.619 10.858 Z M 10.844 12.475 L 8.836 12.475 C 8.565 12.455 8.418 12.148 8.571 11.924 C 8.631 11.835 8.729 11.779 8.836 11.771 L 10.844 11.771 C 11.115 11.791 11.262 12.098 11.109 12.322 C 11.049 12.411 10.951 12.467 10.844 12.475 Z M 15.115 10.524 C 14.604 10.811 13.967 10.86 13.381 10.859 C 11.482 10.857 9.943 9.318 9.94 7.419 C 9.942 5.52 11.482 3.981 13.381 3.979 C 13.756 3.979 14.043 3.977 14.372 4.111 C 18.177 5.66 16.372 9.201 16.372 9.201" style="fill: rgb(255, 255, 255);"/>
</svg>